<?xml version="1.0" standalone="no"?>
<!DOCTYPE svg PUBLIC "-//W3C//DTD SVG 20010904//EN"
 "http://www.w3.org/TR/2001/REC-SVG-20010904/DTD/svg10.dtd">
<svg version="1.0" xmlns="http://www.w3.org/2000/svg"
 width="1024.000000pt" height="1024.000000pt" viewBox="0 0 1024.000000 1024.000000"
 preserveAspectRatio="xMidYMid meet">
<metadata>
Created by potrace 1.11, written by Peter Selinger 2001-2013
</metadata>
<g transform="translate(0.000000,1024.000000) scale(0.100000,-0.100000)"
fill="#000000" stroke="none">
<path d="M0 5125 l0 -5115 5038 -1 c2770 -1 5068 -2 5105 -3 81 -3 96 7 92 61
-1 21 -3 2318 -4 5106 l-1 5067 -5115 0 -5115 0 0 -5115z m5377 3711 c39 -147
73 -269 75 -270 7 -5 243 -34 249 -30 3 2 66 108 140 235 73 127 139 233 145
236 7 2 86 -15 176 -39 l163 -43 3 -280 2 -281 116 -48 116 -49 198 198 199
198 153 -88 c84 -48 155 -89 156 -91 2 -1 -28 -122 -67 -268 -39 -146 -71
-267 -71 -270 0 -6 179 -146 193 -152 7 -2 117 57 246 131 129 74 239 135 245
135 16 0 246 -232 246 -249 0 -7 -61 -119 -135 -248 l-135 -235 72 -95 c40
-53 78 -97 84 -100 6 -2 129 28 274 66 145 39 265 70 266 68 9 -12 174 -301
174 -306 0 -3 -88 -94 -195 -201 l-196 -196 47 -117 48 -117 280 -2 281 -3 46
-170 c26 -93 44 -173 40 -176 -3 -4 -113 -69 -243 -144 -211 -122 -237 -140
-232 -159 2 -11 10 -68 17 -125 l12 -103 211 -58 c116 -32 236 -65 267 -74
l57 -17 0 -178 0 -178 -232 -62 c-128 -34 -251 -68 -273 -75 l-39 -12 -17
-125 c-10 -68 -17 -125 -16 -125 1 -1 109 -63 240 -139 146 -84 237 -143 237
-152 0 -8 -19 -87 -42 -174 l-42 -159 -281 0 -280 0 -49 -121 -49 -121 198
-198 197 -197 -87 -152 c-48 -83 -93 -151 -101 -151 -7 0 -104 24 -216 54
-112 30 -229 61 -260 69 l-56 15 -76 -99 c-42 -54 -76 -101 -76 -103 0 -4 134
-238 245 -427 l33 -57 -128 -127 -127 -127 -243 140 -242 140 -97 -75 c-53
-42 -97 -79 -99 -82 -1 -4 29 -126 67 -271 39 -145 68 -266 65 -269 -3 -4 -72
-45 -152 -92 l-147 -86 -200 198 -200 197 -115 -47 -115 -48 -3 -281 c-1 -155
-4 -282 -7 -282 -2 0 -79 -21 -172 -46 -151 -41 -169 -44 -179 -29 -7 9 -69
116 -140 238 -70 122 -129 224 -130 226 -5 5 -246 -28 -253 -35 -3 -3 -37
-123 -76 -267 l-70 -262 -181 -3 -181 -2 -62 232 c-34 128 -67 250 -73 270
-10 35 -14 38 -57 43 -25 3 -73 10 -107 15 -33 6 -70 10 -81 10 -15 0 -49 -51
-151 -227 -73 -126 -136 -234 -141 -241 -7 -11 -37 -6 -162 28 -85 22 -162 43
-171 46 -16 5 -18 30 -20 285 l-3 280 -115 48 -115 48 -200 -197 -200 -198
-145 84 c-80 46 -149 89 -153 96 -5 8 20 119 62 277 67 252 70 265 52 277 -10
7 -55 42 -100 78 l-82 64 -242 -139 -242 -139 -127 127 c-102 102 -125 130
-118 143 15 28 230 402 251 436 l19 31 -66 83 c-35 45 -70 91 -77 100 -12 17
-29 14 -277 -52 -160 -42 -270 -66 -278 -61 -7 4 -50 73 -96 153 l-84 145 198
200 199 200 -39 90 c-22 50 -44 102 -49 118 l-10 27 -280 0 -280 0 -11 43 c-6
23 -27 100 -46 170 -20 71 -34 130 -32 132 2 1 111 66 243 143 l241 142 -14
112 c-8 62 -17 120 -21 128 -5 9 -109 41 -272 85 l-264 71 -3 180 -2 181 266
71 c147 39 269 74 272 77 3 2 11 51 18 107 7 56 15 111 16 122 3 17 -37 44
-232 157 -129 76 -238 139 -242 141 -4 2 13 81 39 175 l46 173 280 2 280 3 48
115 49 115 -196 196 c-144 144 -195 201 -191 213 16 41 170 296 178 296 6 0
120 -29 255 -65 135 -36 253 -66 263 -68 12 -1 43 31 94 96 l77 98 -121 212
c-67 117 -130 226 -140 243 l-18 30 127 127 127 127 247 -141 248 -141 95 73
c53 40 98 76 100 79 2 4 -27 123 -65 266 -38 142 -70 264 -70 269 0 6 70 50
156 99 l155 89 198 -197 197 -197 117 47 117 48 2 280 3 281 163 43 c89 24
168 42 175 39 6 -3 73 -111 147 -241 134 -235 135 -236 165 -231 16 3 72 11
125 17 52 6 96 12 97 12 1 1 34 121 73 266 39 145 74 268 76 272 3 5 85 7 182
6 l177 -3 72 -269z"/>
<path d="M4904 8300 c-644 -45 -1235 -272 -1754 -673 -135 -105 -432 -402
-537 -537 -527 -682 -752 -1483 -657 -2340 92 -818 516 -1587 1164 -2107 458
-368 988 -596 1577 -679 154 -21 528 -29 693 -15 413 37 802 147 1162 330 988
501 1641 1467 1739 2571 14 165 6 539 -15 693 -83 588 -313 1123 -679 1577
-522 649 -1284 1070 -2107 1164 -173 20 -432 27 -586 16z m246 -2940 c42 -42
18 -109 -35 -96 -40 10 -57 34 -49 70 11 50 48 62 84 26z"/>
</g>
</svg>
